General

Format                         : MPEG-4
Format profile                 : Base Media
Codec ID                       : isom
File size                      : 69.7 MiB
Duration                       : 3mn 19s
Overall bit rate mode          : Variable
Overall bit rate               : 2 934 Kbps
Encoded date                   : UTC 2012-10-06 03:28:05
Tagged date                    : UTC 2012-10-06 03:28:05

Video
ID                             : 1
Format                         : AVC
Format/Info                    : Advanced Video Codec
Format profile                 : High@L3.0
Format settings, CABAC         : Yes
Format settings, ReFrames      : 2 frames
Codec ID                       : avc1
Codec ID/Info                  : Advanced Video Coding
Duration                       : 3mn 19s
Bit rate                       : 2 866 Kbps
Maximum bit rate               : 5 325 Kbps
Width                          : 720 pixels
Height                         : 480 pixels
Display aspect ratio           : 16:9
Original display aspect ratio  : 16:9
Frame rate mode                : Constant
Frame rate                     : 23.976 fps
Standard                       : NTSC
Color space                    : YUV
Chroma subsampling             : 4:2:0
Bit depth                      : 8 bits
Scan type                      : Progressive
Bits/(Pixel*Frame)             : 0.346
Stream size                    : 68.1 MiB (98%)


Audio
ID                             : 2
Format                         : AAC
Format/Info                    : Advanced Audio Codec
Format profile                 : LC
Codec ID                       : 40
Duration                       : 3mn 19s
Bit rate mode                  : Variable
Bit rate                       : 64.2 Kbps
Maximum bit rate               : 75.1 Kbps
Channel(s)                     : 2 channels
Channel positions              : Front: L R
Sampling rate                  : 44.1 KHz
Compression mode               : Lossy
Stream size                    : 1.53 MiB (2%)